<?xml version="1.0" encoding="UTF-8" standalone="no"?>
<!-- Created with Inkscape (http://www.inkscape.org/) -->

<svg
   xmlns:dc="http://purl.org/dc/elements/1.1/"
   xmlns:cc="http://creativecommons.org/ns#"
   xmlns:rdf="http://www.w3.org/1999/02/22-rdf-syntax-ns#"
   xmlns:svg="http://www.w3.org/2000/svg"
   xmlns="http://www.w3.org/2000/svg"
   xmlns:sodipodi="http://sodipodi.sourceforge.net/DTD/sodipodi-0.dtd"
   xmlns:inkscape="http://www.inkscape.org/namespaces/inkscape"
   version="1.1"
   id="svg2"
   xml:space="preserve"
   width="315.38187"
   height="138.92976"
   viewBox="0 0 315.38186 138.92976"
   sodipodi:docname="Lg3Dslogan.svg"
   inkscape:version="0.92.3 (2405546, 2018-03-11)"><metadata
     id="metadata8"><rdf:RDF><cc:Work
         rdf:about=""><dc:format>image/svg+xml</dc:format><dc:type
           rdf:resource="http://purl.org/dc/dcmitype/StillImage" /><dc:title></dc:title></cc:Work></rdf:RDF></metadata><defs
     id="defs6"><clipPath
       clipPathUnits="userSpaceOnUse"
       id="clipPath1166"><path
         d="m 260.151,830.552 h 176.17 v 85.039 h -176.17 z"
         id="path1164"
         inkscape:connector-curvature="0" /></clipPath><clipPath
       clipPathUnits="userSpaceOnUse"
       id="clipPath1228"><path
         d="m 261.7464,844.84207 h 70.75615 v 70.74886 H 261.7464 Z"
         id="path1226"
         inkscape:connector-curvature="0" /></clipPath><radialGradient
       fx="0"
       fy="0"
       cx="0"
       cy="0"
       r="1"
       gradientUnits="userSpaceOnUse"
       gradientTransform="matrix(54.319458,0,0,54.319458,229.37558,865.06012)"
       spreadMethod="pad"
       id="radialGradient1236"><stop
         style="stop-opacity:1;stop-color:#c00c3f"
         offset="0"
         id="stop1230" /><stop
         style="stop-opacity:1;stop-color:#c00c3f"
         offset="0.5"
         id="stop1232" /><stop
         style="stop-opacity:1;stop-color:#9a002b"
         offset="1"
         id="stop1234" /></radialGradient><clipPath
       clipPathUnits="userSpaceOnUse"
       id="clipPath1256"><path
         d="M 316.33129,934.34012 343.16202,860.62328 267.5938,833.1187 240.76307,906.83553 Z"
         id="path1254"
         inkscape:connector-curvature="0" /></clipPath><linearGradient
       x1="0"
       y1="0"
       x2="1"
       y2="0"
       gradientUnits="userSpaceOnUse"
       gradientTransform="matrix(27.487421,-75.521078,-75.521078,-27.487421,209.97325,908.85896)"
       spreadMethod="pad"
       id="linearGradient1264"><stop
         style="stop-opacity:1;stop-color:#f48996"
         offset="0"
         id="stop1258" /><stop
         style="stop-opacity:1;stop-color:#c00c3f"
         offset="0.801102"
         id="stop1260" /><stop
         style="stop-opacity:1;stop-color:#c00c3f"
         offset="1"
         id="stop1262" /></linearGradient><clipPath
       clipPathUnits="userSpaceOnUse"
       id="clipPath1284"><path
         d="m 297.77085,940.35202 60.45784,-60.45784 -60.45835,-60.45835 -60.45784,60.45784 z"
         id="path1282"
         inkscape:connector-curvature="0" /></clipPath><linearGradient
       x1="0"
       y1="0"
       x2="1"
       y2="0"
       gradientUnits="userSpaceOnUse"
       gradientTransform="matrix(63.048151,-63.048151,-63.048151,-63.048151,196.54449,890.19449)"
       spreadMethod="pad"
       id="linearGradient1290"><stop
         style="stop-opacity:1;stop-color:#ce425c"
         offset="0"
         id="stop1286" /><stop
         style="stop-opacity:1;stop-color:#910531"
         offset="1"
         id="stop1288" /></linearGradient><clipPath
       clipPathUnits="userSpaceOnUse"
       id="clipPath1322"><path
         d="m 298.1691,896.112 h 0.78515 v -28.87577 h -0.78515 z"
         id="path1320"
         inkscape:connector-curvature="0" /></clipPath><linearGradient
       x1="0"
       y1="0"
       x2="1"
       y2="0"
       gradientUnits="userSpaceOnUse"
       gradientTransform="matrix(1.1565153,0,0,-1.1565153,232.85427,865.63892)"
       spreadMethod="pad"
       id="linearGradient1328"><stop
         style="stop-opacity:1;stop-color:#b5bec4"
         offset="0"
         id="stop1324" /><stop
         style="stop-opacity:1;stop-color:#333940"
         offset="1"
         id="stop1326" /></linearGradient><clipPath
       clipPathUnits="userSpaceOnUse"
       id="clipPath1348"><path
         d="m 305.20805,867.85451 h 0.69091 v -3.49098 h -0.69091 z"
         id="path1346"
         inkscape:connector-curvature="0" /></clipPath><linearGradient
       x1="0"
       y1="0"
       x2="1"
       y2="0"
       gradientUnits="userSpaceOnUse"
       gradientTransform="matrix(1.0179037,0,0,-1.0179037,243.22113,842.71519)"
       spreadMethod="pad"
       id="linearGradient1354"><stop
         style="stop-opacity:1;stop-color:#b4bcc2"
         offset="0"
         id="stop1350" /><stop
         style="stop-opacity:1;stop-color:#2b3337"
         offset="1"
         id="stop1352" /></linearGradient><clipPath
       clipPathUnits="userSpaceOnUse"
       id="clipPath1378"><path
         d="m 276.59351,891.51789 9.2252,-9.22521 9.22521,9.22521 -9.2252,9.22521 z"
         id="path1376"
         inkscape:connector-curvature="0" /></clipPath><linearGradient
       x1="0"
       y1="0"
       x2="1"
       y2="0"
       gradientUnits="userSpaceOnUse"
       gradientTransform="matrix(9.6067902,-9.6067902,9.6067902,9.6067902,209.84953,884.95436)"
       spreadMethod="pad"
       id="linearGradient1384"><stop
         style="stop-opacity:1;stop-color:#abbac3"
         offset="0"
         id="stop1380" /><stop
         style="stop-opacity:1;stop-color:#202428"
         offset="1"
         id="stop1382" /></linearGradient><clipPath
       clipPathUnits="userSpaceOnUse"
       id="clipPath1398"><path
         d="m 260.151,830.552 h 176.17 v 85.039 h -176.17 z"
         id="path1396"
         inkscape:connector-curvature="0" /></clipPath><clipPath
       clipPathUnits="userSpaceOnUse"
       id="clipPath1422"><path
         d="m 237.1446,880.22667 59.96186,-59.96186 59.96259,59.96258 -59.96186,59.96187 z"
         id="path1420"
         inkscape:connector-curvature="0" /></clipPath><linearGradient
       x1="0"
       y1="0"
       x2="1"
       y2="0"
       gradientUnits="userSpaceOnUse"
       gradientTransform="matrix(62.953599,-62.953599,62.953599,62.953599,196.09235,890.90732)"
       spreadMethod="pad"
       id="linearGradient1428"><stop
         style="stop-opacity:1;stop-color:#b5bec4"
         offset="0"
         id="stop1424" /><stop
         style="stop-opacity:1;stop-color:#3e454d"
         offset="1"
         id="stop1426" /></linearGradient><clipPath
       clipPathUnits="userSpaceOnUse"
       id="clipPath1448"><path
         d="m 324.22031,907.37569 h -54.2582 v -54.31007 h 54.2582 z"
         id="path1446"
         inkscape:connector-curvature="0" /></clipPath><linearGradient
       x1="0"
       y1="0"
       x2="1"
       y2="0"
       gradientUnits="userSpaceOnUse"
       gradientTransform="matrix(-79.903613,0,0,-79.903613,271.2171,863.49604)"
       spreadMethod="pad"
       id="linearGradient1454"><stop
         style="stop-opacity:1;stop-color:#b5bec4"
         offset="0"
         id="stop1450" /><stop
         style="stop-opacity:1;stop-color:#485059"
         offset="1"
         id="stop1452" /></linearGradient><clipPath
       clipPathUnits="userSpaceOnUse"
       id="clipPath1478"><path
         d="m 298.20497,910.20004 h 0.68468 v -3.5318 h -0.68468 z"
         id="path1476"
         inkscape:connector-curvature="0" /></clipPath><linearGradient
       x1="0"
       y1="0"
       x2="1"
       y2="0"
       gradientUnits="userSpaceOnUse"
       gradientTransform="matrix(1.0083527,0,0,-1.0083527,232.90729,905.05037)"
       spreadMethod="pad"
       id="linearGradient1484"><stop
         style="stop-opacity:1;stop-color:#b4bcc2"
         offset="0"
         id="stop1480" /><stop
         style="stop-opacity:1;stop-color:#2b3337"
         offset="1"
         id="stop1482" /></linearGradient><clipPath
       clipPathUnits="userSpaceOnUse"
       id="clipPath1504"><path
         d="m 267.48951,909.84076 h 59.19865 v -59.2242 h -59.19865 z"
         id="path1502"
         inkscape:connector-curvature="0" /></clipPath><radialGradient
       fx="0"
       fy="0"
       cx="0"
       cy="0"
       r="1"
       gradientUnits="userSpaceOnUse"
       gradientTransform="matrix(66.679571,0,0,-66.679571,213.69053,881.97494)"
       spreadMethod="pad"
       id="radialGradient1512"><stop
         style="stop-opacity:1;stop-color:#ffffff"
         offset="0"
         id="stop1506" /><stop
         style="stop-opacity:1;stop-color:#ffffff"
         offset="0.350006"
         id="stop1508" /><stop
         style="stop-opacity:1;stop-color:#c0ccd3"
         offset="1"
         id="stop1510" /></radialGradient><clipPath
       clipPathUnits="userSpaceOnUse"
       id="clipPath1532"><path
         d="m 281.55048,895.75534 h 8.49591 v -8.47312 h -8.49591 z"
         id="path1530"
         inkscape:connector-curvature="0" /></clipPath><radialGradient
       fx="0"
       fy="0"
       cx="0"
       cy="0"
       r="1"
       gradientUnits="userSpaceOnUse"
       gradientTransform="matrix(9.7364533,0,0,-9.7364533,212.04986,882.43297)"
       spreadMethod="pad"
       id="radialGradient1540"><stop
         style="stop-opacity:1;stop-color:#ffffff"
         offset="0"
         id="stop1534" /><stop
         style="stop-opacity:1;stop-color:#ffffff"
         offset="0.350006"
         id="stop1536" /><stop
         style="stop-opacity:1;stop-color:#d0dadf"
         offset="1"
         id="stop1538" /></radialGradient><clipPath
       clipPathUnits="userSpaceOnUse"
       id="clipPath1550"><path
         d="m 260.151,830.552 h 176.17 v 85.039 h -176.17 z"
         id="path1548"
         inkscape:connector-curvature="0" /></clipPath></defs><sodipodi:namedview
     pagecolor="#ffffff"
     bordercolor="#666666"
     borderopacity="1"
     objecttolerance="10"
     gridtolerance="10"
     guidetolerance="10"
     inkscape:pageopacity="0"
     inkscape:pageshadow="2"
     inkscape:window-width="1920"
     inkscape:window-height="1005"
     id="namedview4"
     showgrid="false"
     showguides="true"
     inkscape:guide-bbox="true"
     fit-margin-top="0"
     fit-margin-left="0"
     fit-margin-right="0"
     fit-margin-bottom="0"
     inkscape:zoom="1.8494059"
     inkscape:cx="104.93877"
     inkscape:cy="123.56769"
     inkscape:window-x="-9"
     inkscape:window-y="-9"
     inkscape:window-maximized="1"
     inkscape:current-layer="g10" /><g
     id="g10"
     inkscape:groupmode="layer"
     inkscape:label="2015.compressed"
     transform="matrix(1.3333333,0,0,-1.3333333,-238.94853,1220.788)"><path
       inkscape:connector-curvature="0"
       id="path1206"
       style="fill:#6d6e71;fill-opacity:1;fill-rule:nonzero;stroke:none;stroke-width:1.47277451"
       d="m 322.26787,897.45526 h -15.56281 v -67.35735 h 47.80037 v 13.11653 h -32.23756 z" /><path
       inkscape:connector-curvature="0"
       id="path1210"
       style="fill:#6d6e71;fill-opacity:1;fill-rule:nonzero;stroke:none;stroke-width:1.47277451"
       d="m 388.74007,855.77279 h 12.66734 v -11.7763 c -2.33288,-0.89398 -6.88522,-1.78353 -11.22107,-1.78353 -14.00903,0 -18.67773,7.11939 -18.67773,21.56583 0,13.7837 4.44484,21.89869 18.45092,21.89869 7.78509,0 12.22698,-2.44481 15.89418,-7.11498 l 9.67613,8.89262 c -5.89699,8.44341 -16.23439,11.00309 -25.90463,11.00309 -21.78381,0 -33.23463,-11.89265 -33.23463,-34.56601 0,-22.5688 10.33741,-34.7943 33.12417,-34.7943 10.44934,0 20.67776,2.66867 26.23306,6.55679 v 32.6794 h -27.00774 z" /><path
       inkscape:connector-curvature="0"
       id="path1238"
       style="fill:url(#radialGradient1236);stroke:none;stroke-width:1.47277451"
       d="m 179.2114,863.49013 c 0,-28.77949 23.33316,-52.09645 52.07141,-52.09645 v 0 c 28.67197,0 51.91235,23.09605 52.13622,51.69291 v 0 0.81297 c -0.22387,28.59097 -23.46425,51.69144 -52.13622,51.69144 v 0 c -28.73825,0 -52.07141,-23.32138 -52.07141,-52.10087" /><path
       inkscape:connector-curvature="0"
       id="path1266"
       style="fill:url(#linearGradient1264);stroke:none;stroke-width:1.47277451"
       d="m 196.0349,898.75866 c -17.40967,-17.41408 -19.17258,-43.94464 -3.88371,-59.23646 v 0 c 15.2874,-15.28004 41.79881,-13.53185 59.21437,3.89254 v 0 c 17.44207,17.44943 19.19762,43.97263 3.92053,59.2615 v 0 c -6.97948,6.98095 -16.2992,10.41252 -26.04307,10.41252 v 0 c -11.57306,0 -23.73671,-4.85427 -33.20812,-14.3301" /><path
       inkscape:connector-curvature="0"
       id="path1292"
       style="fill:url(#linearGradient1290);stroke:none;stroke-width:1.47277451"
       d="m 231.76883,907.34346 -1.08397,-0.35641 c -24.47309,0 -42.82386,-20.45831 -42.82386,-44.81653 v 0 c 0,-11.78514 4.62893,-22.88249 13.01638,-31.22134 v 0 c 8.37567,-8.34474 19.48039,-12.56719 31.3318,-12.56719 v 0 c 11.90444,0 23.0828,4.49049 31.45405,12.83376 v 0 c 8.39629,8.34179 13.01196,19.4362 13.01196,31.22135 v 0 2.54053 l -1.05745,0.91165 -32.22872,-0.0133 v -5.15912 l 0.80119,-1.07071 c 0,0 0.0957,-0.10604 0.27246,-0.10604 v 0 h 24.56588 2.36675 0.009 0.028 C 270.04053,839.14955 252.84,823.18467 232.29185,823.18467 v 0 c -10.47143,0 -20.31987,4.0678 -27.74118,11.42431 v 0 c -7.39627,7.36682 -11.46555,17.14752 -11.46555,27.5615 v 0 c 0,10.42136 3.85572,20.41266 11.25052,27.76475 v 0 c 7.44046,7.34031 16.80142,11.21665 28.0107,11.46113 v 0 l 2.11638,0.0309 h 0.23564 c 0.14728,0.0177 0.27247,0.0221 0.27247,0.3461 v 0 4.22686 c 0,0.30781 -0.10457,0.45362 -0.10457,0.45804 v 0 l -0.94994,1.19294 z m -1.65099,-21.77644 h -0.22533 v -0.0648 l -0.32106,-0.0957 0.32106,-0.51253 0.007,-44.01681 -1.28867,-0.73197 0.99707,-0.69957 c 0.0795,-0.0545 0.37997,-0.22239 0.72755,-0.21208 v 0 h 14.48768 c 0.15759,0.0236 0.29308,0.12224 0.29308,0.34611 v 0 4.03098 c 0,0.30045 -0.0457,0.39765 -0.11635,0.48602 v 0 l -0.76142,1.19 h -9.46994 l 0.0398,40.08008 c 0.006,0.22828 -0.0987,0.33285 -0.0987,0.33285 v 0 l -0.6981,1.20326 z m -21.8,-6.23867 c 0,-3.83364 3.13553,-6.94413 7.00893,-6.94413 v 0 c 3.86898,0 7.00304,3.11049 7.00304,6.94413 v 0 c 0,3.84099 -3.13406,6.9618 -7.00304,6.9618 v 0 c -3.8734,0 -7.00893,-3.12081 -7.00893,-6.9618" /><path
       inkscape:connector-curvature="0"
       id="path1296"
       style="fill:#616d76;fill-opacity:1;fill-rule:nonzero;stroke:none;stroke-width:1.47277451"
       d="m 229.67307,841.1555 -1.0604,-1.01179 h 15.62614 l -1.01769,1.04125 z" /><path
       inkscape:connector-curvature="0"
       id="path1300"
       style="fill:#879aa4;fill-opacity:1;fill-rule:nonzero;stroke:none;stroke-width:1.47277451"
       d="m 234.01186,845.28664 -1.21209,-0.98823 h 10.42135 l 1.01769,0.98823 z" /><path
       inkscape:connector-curvature="0"
       id="path1304"
       style="fill:#8e9ba1;fill-opacity:1;fill-rule:nonzero;stroke:none;stroke-width:1.47277451"
       d="m 228.6112,886.90283 1.01327,-0.96909 3.22979,0.006 1.1576,0.9632 z" /><path
       inkscape:connector-curvature="0"
       id="path1330"
       style="fill:url(#linearGradient1328);stroke:none;stroke-width:1.47277451"
       d="m 232.85426,885.9411 0.0324,-41.56758 1.1252,0.91312 v 41.61619 z" /><path
       inkscape:connector-curvature="0"
       id="path1356"
       style="fill:url(#linearGradient1354);stroke:none;stroke-width:1.47277451"
       d="m 243.22112,844.29693 v -3.11197 l 1.01769,-1.03978 v 5.14146 z" /><path
       inkscape:connector-curvature="0"
       id="path1360"
       style="fill:#b5bec4;fill-opacity:1;fill-rule:nonzero;stroke:none;stroke-width:1.47277451"
       d="m 228.6112,840.14518 1.06039,1.0118 -0.0471,44.77823 -1.01327,0.96762 z" /><path
       inkscape:connector-curvature="0"
       id="path1386"
       style="fill:url(#linearGradient1384);stroke:none;stroke-width:1.47277451"
       d="m 207.86422,880.12512 c 0,-3.74085 3.04717,-6.77624 6.80275,-6.77624 v 0 c 3.76146,0 6.79685,3.03539 6.79685,6.77624 v 0 c 0,3.74821 -3.03539,6.79685 -6.79685,6.79685 v 0 c -3.75558,0 -6.80275,-3.04864 -6.80275,-6.79685 m 1.00591,0 c 0,3.1915 2.59944,5.77622 5.79684,5.77622 v 0 c 3.18708,0 5.788,-2.58472 5.788,-5.77622 v 0 c 0,-3.1812 -2.60092,-5.75708 -5.788,-5.75708 v 0 c -3.1974,0 -5.79684,2.57588 -5.79684,5.75708" /><path
       inkscape:connector-curvature="0"
       id="path1390"
       style="fill:#505c61;fill-opacity:1;fill-rule:nonzero;stroke:none;stroke-width:1.47277451"
       d="m 243.20492,860.87596 h 26.97239 l 0.53756,0.55818 0.49927,0.46539 -27.00626,0.0309 z" /><path
       inkscape:connector-curvature="0"
       id="path1404"
       style="fill:#909da5;fill-opacity:1;fill-rule:nonzero;stroke:none;stroke-width:1.47277451"
       d="m 243.20492,866.04687 1.00149,-1.06924 30.20513,0.0486 1.0221,1.028 z" /><path
       inkscape:connector-curvature="0"
       id="path1430"
       style="fill:url(#linearGradient1428);stroke:none;stroke-width:1.47277451"
       d="m 187.14523,863.50633 c 0,-11.78661 4.59653,-22.88102 12.92802,-31.22282 v 0 c 8.32412,-8.33885 19.4038,-12.94274 31.186,-12.94274 v 0 c 11.82196,0 22.92962,4.60389 31.2508,12.94274 v 0 c 8.34179,8.3418 12.92507,19.43621 12.92507,31.22282 v 0 2.54937 l -1.02358,-1.02947 v -1.5199 c 0,-11.52299 -4.47576,-22.35083 -12.61579,-30.50558 v 0 c -8.13266,-8.1518 -18.98553,-12.64377 -30.5365,-12.64377 v 0 c -11.50237,0 -22.33168,4.49197 -30.46582,12.64377 v 0 c -8.14444,8.16212 -12.62904,18.9929 -12.62904,30.50558 v 0 c 0,23.79856 19.33606,43.1464 43.09486,43.1464 v 0 l 1.64803,0.0191 1.00885,0.97939 -2.65688,0.025 c -24.31404,0 -44.11402,-19.81324 -44.11402,-44.16998" /><path
       inkscape:connector-curvature="0"
       id="path1456"
       style="fill:url(#linearGradient1454);stroke:none;stroke-width:1.47277451"
       d="m 230.6937,903.49216 c -10.43903,-0.1517 -20.24329,-4.29756 -27.69552,-11.69972 v 0 c -7.53325,-7.54797 -11.68647,-17.59524 -11.68647,-28.28611 v 0 c 0,-10.68792 4.15322,-20.72194 11.68647,-28.27727 v 0 c 7.45665,-7.43751 17.29773,-11.59663 27.76916,-11.72328 v 0 h 1.03094 c 20.73225,0.26362 37.98727,16.55398 39.38788,37.29065 v 0 l 0.0354,1.1031 -0.50664,-0.46539 -0.53756,-0.55818 C 268.7929,840.48539 251.7043,824.52052 231.28723,824.52052 v 0 c -10.40515,0 -20.18879,4.06633 -27.5615,11.42873 v 0 c -7.35062,7.36092 -11.39044,17.14456 -11.39044,27.55708 v 0 c 0,10.42135 4.03982,20.21972 11.39044,27.57034 v 0 c 7.38743,7.33736 17.16813,11.3978 27.5615,11.3978 v 0 l 2.6289,-0.025 -1.01327,1.01769 -1.13698,0.025 z" /><path
       inkscape:connector-curvature="0"
       id="path1460"
       style="fill:#b5bec4;fill-opacity:1;fill-rule:nonzero;stroke:none;stroke-width:1.47277451"
       d="m 243.20492,860.87596 1.00149,1.0545 v 3.04717 l -1.00149,1.06924 z" /><path
       inkscape:connector-curvature="0"
       id="path1486"
       style="fill:url(#linearGradient1484);stroke:none;stroke-width:1.47277451"
       d="m 232.90728,906.67188 v -3.21065 l 1.00885,-1.0118 v 5.20184 z" /><path
       inkscape:connector-curvature="0"
       id="path1514"
       style="fill:url(#radialGradient1512);stroke:none;stroke-width:1.47277451"
       d="m 230.70254,907.12255 c -23.7426,-0.28572 -43.03153,-19.73813 -43.03153,-43.61622 v 0 c 0,-11.65406 4.53909,-22.59236 12.76748,-30.83253 v 0 c 8.21956,-8.24018 19.19026,-12.77632 30.79425,-12.77632 v 0 c 11.6791,0 22.63948,4.53614 30.86198,12.77632 v 0 c 8.23723,8.24017 12.7616,19.17847 12.7616,30.83253 v 0 1.98383 l -1.72315,-0.007 h -29.39658 v -4.04865 h 26.97828 c -0.004,-0.0943 -0.004,-0.51106 -0.0118,-0.59059 v 0 c -1.40355,-20.55256 -18.53192,-36.8768 -39.44384,-36.8768 v 0 c -10.54212,0 -20.46421,4.11641 -27.95474,11.59221 v 0 c -7.4434,7.45519 -11.55686,17.38169 -11.55686,27.94737 v 0 c 0,10.57452 4.11346,20.50839 11.55686,27.95915 v 0 c 7.49053,7.4434 17.41262,11.56128 27.95474,11.56128 v 0 c 0.45508,0 1.58765,0 2.08544,-0.0118 v 0 4.084 c -0.4109,0 -1.09279,0.0133 -1.63036,0.0236 v 0 z m -1.51696,-20.77054 v -45.66043 h 14.51714 v 4.06928 h -10.35803 v 41.59115 z" /><path
       inkscape:connector-curvature="0"
       id="path1542"
       style="fill:url(#radialGradient1540);stroke:none;stroke-width:1.47277451"
       d="m 208.37969,880.12512 c 0,-3.44482 2.82037,-6.22689 6.26077,-6.22689 v 0 c 3.43745,0 6.25193,2.78207 6.25193,6.22689 v 0 c 0,3.47133 -2.81448,6.25193 -6.25193,6.25193 v 0 c -3.4404,0 -6.26077,-2.7806 -6.26077,-6.25193" /><path
       inkscape:connector-curvature="0"
       id="path1554"
       style="fill:#ffffff;fill-opacity:1;fill-rule:nonzero;stroke:none;stroke-width:1.47277451"
       d="m 215.76566,885.25479 c 1.43448,0 2.74083,-0.51252 3.79828,-1.32844 -1.13698,1.48308 -2.92198,2.4507 -4.92054,2.4507 -3.44629,0 -6.26371,-2.77913 -6.26371,-6.25046 0,-1.99414 0.96614,-3.74968 2.43155,-4.88667 -0.80413,1.04715 -1.30929,2.33288 -1.30929,3.76294 0,3.46102 2.81742,6.25193 6.26371,6.25193" /><path
       inkscape:connector-curvature="0"
       id="path1558"
       style="fill:#ffffff;fill-opacity:1;fill-rule:nonzero;stroke:none;stroke-width:1.47277451"
       d="m 233.34175,907.09898 c -0.5464,0.009 -1.58176,0.0309 -2.10607,0.0309 -23.99739,0 -43.5632,-19.57465 -43.5632,-43.62358 0,-11.66585 4.5391,-22.59089 12.76307,-30.83695 0.26215,-0.26363 0.53609,-0.51105 0.80266,-0.77026 -7.76005,8.15328 -12.03993,18.76462 -12.03993,30.07847 0,23.99297 16.9914,43.91666 44.14347,45.12139" /><path
       inkscape:connector-curvature="0"
       id="path1562"
       style="fill:#ffffff;fill-opacity:1;fill-rule:nonzero;stroke:none;stroke-width:1.47277451"
       d="m 233.34175,844.76233 c 0,0 2.99268,-0.86894 10.35213,-0.86894 v 0.86894 z" /><path
       inkscape:connector-curvature="0"
       id="path1566"
       style="fill:#ffffff;fill-opacity:1;fill-rule:nonzero;stroke:none;stroke-width:1.47277451"
       d="m 233.34175,885.06628 v 1.28867 h -4.15617 v -45.66337 c 0,0 1.29899,6.94561 1.29899,44.3747 z" /><path
       inkscape:connector-curvature="0"
       id="path1570"
       style="fill:#ffffff;fill-opacity:1;fill-rule:nonzero;stroke:none;stroke-width:1.47277451"
       d="m 274.85337,865.4931 -31.11972,-0.007 v -4.04718 h 1.13109 v 2.92198 c 27.11525,0 29.98863,1.13256 29.98863,1.13256" /><path
       inkscape:connector-curvature="0"
       id="path1574"
       style="fill:#ffffff;fill-opacity:1;fill-rule:nonzero;stroke:none;stroke-width:1.47277451"
       d="m 270.71782,861.43561 c -0.009,-0.0884 -0.009,-0.52431 -0.0236,-0.60237 -1.38588,-20.53931 -18.52603,-36.86501 -39.43648,-36.86501 -10.54359,0 -20.46862,4.1164 -27.95473,11.59515 -4.87636,4.87194 -8.31676,10.81016 -10.10912,17.28448 4.67753,-17.02233 20.24475,-29.35534 38.74427,-29.35534 19.8589,0 38.15665,15.55397 39.29215,37.94309 z" /></g></svg>